<?xml version="1.0" encoding="utf-8"?>
<!-- Generator: Adobe Illustrator 23.0.2, SVG Export Plug-In . SVG Version: 6.00 Build 0)  -->
<svg version="1.1" id="Layer_1" xmlns="http://www.w3.org/2000/svg" xmlns:xlink="http://www.w3.org/1999/xlink" x="0px" y="0px"
	 viewBox="0 0 255 255" style="enable-background:new 0 0 255 255;" xml:space="preserve">
<style type="text/css">
	.st0{fill:#1D7A5F;}
	.st1{fill:none;}
	.st2{fill:#FFFFFF;}
	.st3{font-family:'ProductSans-Regular';}
	.st4{font-size:50px;}
</style>
<g id="flecha3">
	<path class="st0" d="M2.7,130.9l34.9-21.2L71.9,131l0.2,0.2c1.6,19.9,14.3,37.9,32.6,46c5.2,2.3,10.8,3.8,16.5,4.4l0.2,0L100,217.2
		l21.1,34.1h-0.3c-13.8-0.7-27.4-3.8-40.1-9c-22-8.9-41.2-24.1-54.9-43.4c-14.1-19.8-22.3-43.6-23.2-67.9L2.7,130.9z"/>
</g>
<g id="flecha4">
	<path class="st0" d="M123.9,2.6l21.2,34.9l-21.4,34.4l-0.2,0.2c-19.9,1.6-37.9,14.3-46,32.6c-2.3,5.2-3.8,10.8-4.4,16.5l0,0.2
		L37.6,99.9L3.4,121v-0.3c0.7-13.8,3.8-27.4,9-40.1c8.9-22,24.1-41.2,43.4-54.9C75.6,11.4,99.3,3.3,123.7,2.4L123.9,2.6z"/>
</g>
<g id="flecha1">
	<path class="st0" d="M252.5,123.5l-34.9,21.2l-34.4-21.4l-0.2-0.2c-1.6-19.9-14.3-37.9-32.6-46c-5.2-2.3-10.8-3.8-16.5-4.4l-0.2,0
		l21.5-35.6L134.1,3.1h0.3c13.8,0.7,27.4,3.8,40.1,9c22,8.9,41.2,24.1,54.9,43.4c14.1,19.8,22.3,43.6,23.2,67.9L252.5,123.5z"/>
</g>
<g id="flecha2">
	<path class="st0" d="M131.4,251.7l-21.2-34.9l21.4-34.4l0.2-0.2c19.9-1.6,37.9-14.3,46-32.6c2.3-5.2,3.8-10.8,4.4-16.5l0-0.2
		l35.6,21.5l34.1-21.1v0.3c-0.7,13.8-3.8,27.4-9,40.1c-8.9,22-24.1,41.2-43.4,54.9c-19.8,14.1-43.6,22.3-67.9,23.2L131.4,251.7z"/>
</g>
<image style="overflow:visible;" width="1241" height="1241" xlink:href="../../../../Users/Francisco/Downloads/Logotipos-07.png"  transform="matrix(9.883400e-02 0 0 9.883400e-02 66.3923 66.7644)">
</image>
<rect x="55.6" y="36.6" class="st1" width="37.4" height="43.2"/>
<text transform="matrix(1 0 0 1 55.6401 72.3594)" class="st2 st3 st4">4</text>
<rect x="187" y="57.2" class="st1" width="37.4" height="43.2"/>
<text transform="matrix(1 0 0 1 187.0001 92.9594)" class="st2 st3 st4">1</text>
<rect x="169.3" y="180.5" class="st1" width="37.4" height="43.2"/>
<text transform="matrix(1 0 0 1 169.3254 216.2657)" class="st2 st3 st4">2</text>
<rect x="41.7" y="160.8" class="st1" width="37.4" height="43.2"/>
<text transform="matrix(1 0 0 1 41.6724 196.6167)" class="st2 st3 st4">3</text>
</svg>
