<?xml version="1.0"?>
<svg xmlns="http://www.w3.org/2000/svg" xmlns:xlink="http://www.w3.org/1999/xlink" xmlns:svgjs="http://svgjs.com/svgjs" version="1.1" width="512" height="512" x="0" y="0" viewBox="0 0 512.016 512.016" style="enable-background:new 0 0 512 512" xml:space="preserve" class=""><g><g xmlns="http://www.w3.org/2000/svg"><path d="m232.714 510.417 60-30c5.082-2.541 8.292-7.735 8.292-13.417v-92.438l120.597-146.052c2.229-2.7 3.502-6.239 3.428-9.861v-59.696c0-8.284-6.716-15-15-15h-308.049c-8.284 0-15 6.716-15 15v60c0 3.471 1.295 6.998 3.518 9.643l120.507 145.954v122.45c-.001 11.131 11.739 18.4 21.707 13.417zm162.317-336.463v30c-4.249 0-108.943.002-278.049-.004v-29.996zm-261.204 60c146.726 0 243.545.005 244.373.005l-103.76 125.66c-2.22 2.688-3.434 6.065-3.434 9.551v88.56l-30 15v-103.57c0-3.486-1.214-6.862-3.433-9.55z" fill="#1e7a5e" data-original="#000000" style="" class=""/><path d="m331.376 98.952v-83.952c0-8.284-6.716-15-15-15s-15 6.716-15 15v83.952c0 8.284 6.716 15 15 15s15-6.716 15-15z" fill="#1e7a5e" data-original="#000000" style="" class=""/><path d="m211.376 98.952v-83.952c0-8.284-6.716-15-15-15s-15 6.716-15 15v83.952c0 8.284 6.716 15 15 15s15-6.716 15-15z" fill="#1e7a5e" data-original="#000000" style="" class=""/><path d="m256.376 0c-8.284 0-15 6.716-15 15v23.952c0 8.284 6.716 15 15 15s15-6.716 15-15v-23.952c0-8.284-6.716-15-15-15z" fill="#1e7a5e" data-original="#000000" style="" class=""/><circle cx="256.376" cy="98.952" r="15" fill="#1e7a5e" data-original="#000000" style="" class=""/></g></g></svg>
