<?xml version="1.0"?>
<svg xmlns="http://www.w3.org/2000/svg" xmlns:xlink="http://www.w3.org/1999/xlink" xmlns:svgjs="http://svgjs.com/svgjs" version="1.1" width="512" height="512" x="0" y="0" viewBox="0 0 192 192" style="enable-background:new 0 0 512 512" xml:space="preserve" class=""><g><g xmlns="http://www.w3.org/2000/svg" id="_05-growth" data-name="05-growth"><path d="m176 176v-88a8 8 0 0 0 -8-8h-32a8 8 0 0 0 -8 8v88h-8v-56a8 8 0 0 0 -8-8h-32a8 8 0 0 0 -8 8v56h-8v-40a8 8 0 0 0 -8-8h-32a8 8 0 0 0 -8 8v40h-16v16h192v-16zm-144 0v-32h16v32zm56 0v-48h16v48zm56 0v-80h16v80z" fill="#1e7a5e" data-original="#000000" style="" class=""/><path d="m172.874 28.482 3.365 13.458 15.522-3.88-8-32a8 8 0 0 0 -9.7-5.821l-32 8 3.88 15.522 12.953-3.238c-45.333 65.535-122.171 83.477-158.894 83.477v16c19.637 0 52.339-5.17 85.229-19.681 36.986-16.319 66.386-40.439 87.645-71.837z" fill="#1e7a5e" data-original="#000000" style="" class=""/></g></g></svg>
