<svg id="Capa_1" enable-background="new 0 0 512 512" height="512" viewBox="0 0 512 512" width="512" xmlns="http://www.w3.org/2000/svg"><path d="m497 482h-65.489v-262.752l49.432-49.615v16.6c0 8.284 6.716 15 15 15s15-6.716 15-15v-52.934c0-8.284-6.716-15-15-15h-52.739c-8.284 0-15 6.716-15 15s6.716 15 15 15h16.647l-127.709 128.182-71.447-38.648c-5.845-3.162-13.072-2.101-17.763 2.606l-159.256 159.842h-53.676v-385.281c0-8.284-6.716-15-15-15s-15 6.716-15 15v482c0 8.284 6.716 15 15 15h482c8.284 0 15-6.716 15-15s-6.716-15-15-15zm-95.489 0h-51.651v-180.798l51.651-51.843zm-296.606-60.522 51.651-51.842v112.364h-51.651zm81.652-81.952 51.651-51.842v194.316h-51.651zm81.651-63.521 51.651 27.94v178.055h-51.651zm-238.208 154.276h44.905v51.719h-44.905z"/></svg>